# xmcd CD database file
#
# Track frame offsets:
#	150
#	28167
#	45545
#
# Disc length: 831 seconds
#
# Revision: 0
# Processed by: cddbd v1.5.1PL0 Copyright (c) Steve Scherf et al.
# Submitted via: CDex 1.51
#
DISCID=1e033d03
DTITLE=K.W.S. - PLEASE DON'T GO
DYEAR=1992
DGENRE=Pop
TTITLE0=PLEASE DONT'T GO（サンシャイン・ミックス）
TTITLE1=PLEASE DONT'T GO（インストゥルメンタル・サーフ・ヴァージョン）
TTITLE2=DIFFERENT MAN
EXTD=YEAR: 1992
EXTT0=
EXTT1=
EXTT2=
PLAYORDER=
